<svg width="20" height="21" viewBox="0 0 20 21" fill="none" xmlns="http://www.w3.org/2000/svg">
<path d="M6.05287 5.91905L14.0011 13.8078M6.08267 13.8374L13.9712 5.88956M19.469 10.4408C19.469 11.0607 19.4085 11.6746 19.2876 12.2826C19.1666 12.8906 18.9876 13.4809 18.7503 14.0536C18.5131 14.6263 18.2223 15.1704 17.8779 15.6858C17.5335 16.2012 17.1422 16.6781 16.7038 17.1164C16.2655 17.5548 15.7886 17.9461 15.2732 18.2905C14.7578 18.6349 14.2137 18.9257 13.641 19.1629C13.0683 19.4002 12.478 19.5792 11.87 19.7002C11.262 19.8211 10.6481 19.8816 10.0282 19.8816C9.4083 19.8816 8.79437 19.8211 8.18639 19.7002C7.57841 19.5792 6.98806 19.4002 6.41536 19.1629C5.84265 18.9257 5.29859 18.6349 4.78317 18.2905C4.26775 17.9461 3.79088 17.5548 3.35255 17.1164C2.91422 16.6781 2.52286 16.2012 2.17846 15.6858C1.83407 15.1704 1.54326 14.6263 1.30604 14.0536C1.06882 13.4809 0.889739 12.8906 0.768804 12.2826C0.64787 11.6746 0.587402 11.0607 0.587402 10.4408C0.587402 9.8209 0.64787 9.20696 0.768804 8.59898C0.889739 7.991 1.06882 7.40066 1.30604 6.82796C1.54326 6.25525 1.83407 5.71119 2.17846 5.19577C2.52286 4.68035 2.91422 4.20347 3.35255 3.76514C3.79088 3.32681 4.26775 2.93545 4.78317 2.59106C5.29859 2.24667 5.84265 1.95586 6.41536 1.71864C6.98806 1.48142 7.57841 1.30234 8.18639 1.1814C8.79437 1.06047 9.4083 1 10.0282 1C10.6481 1 11.262 1.06047 11.87 1.1814C12.478 1.30234 13.0683 1.48142 13.641 1.71864C14.2137 1.95586 14.7578 2.24667 15.2732 2.59106C15.7886 2.93545 16.2655 3.32681 16.7038 3.76514C17.1422 4.20347 17.5335 4.68035 17.8779 5.19577C18.2223 5.71119 18.5131 6.25525 18.7503 6.82796C18.9876 7.40066 19.1666 7.991 19.2876 8.59898C19.4085 9.20696 19.469 9.8209 19.469 10.4408Z" stroke="black" stroke-width="0.609103" stroke-miterlimit="10"/>
</svg>
