<svg width="124" height="76" viewBox="0 0 124 76" fill="none" xmlns="http://www.w3.org/2000/svg">
<path d="M39.7615 74.5285C41.6939 68.2093 47.4373 62.9049 51.9432 58.4632C71.5526 39.1328 94.0392 22.8967 115.865 6.21873C118.064 4.53832 124.629 -0.544386 122.405 1.1026C112.903 8.13867 115.33 6.682 102.761 15.5417C75.3261 34.8808 46.6119 53.2696 15.7719 66.7428C13.5925 67.695 6.4918 70.4511 3.43279 71.3554C2.55246 71.6156 0.517133 72.3052 0.679196 71.4017C1.15423 68.7531 3.64176 66.8848 5.43686 64.8803C16.1214 52.9492 28.1194 42.1943 39.9505 31.4373C42.9574 28.7034 57.447 15.9495 61.6453 11.5163C64.1946 8.82444 66.7256 6.08941 61.3513 7.8944C46.3103 12.946 33.4557 23.8154 20.6148 32.7201" stroke="#9CA5F2" stroke-linecap="round"/>
</svg>
