<svg width="221" height="86" viewBox="0 0 221 86" fill="none" xmlns="http://www.w3.org/2000/svg">
<path d="M0.684243 22.659C0.470132 22.8334 0.43793 23.1483 0.612318 23.3625C0.786705 23.5766 1.10165 23.6088 1.31576 23.4344L0.684243 22.659ZM189.574 22.4882L189.233 22.1221L189.233 22.1221L189.574 22.4882ZM219.337 85.6166C219.559 85.7813 219.872 85.735 220.037 85.5134C220.202 85.2917 220.155 84.9785 219.934 84.8138L219.337 85.6166ZM1.31576 23.4344C4.17189 21.1081 7.98098 19.951 12.6342 19.6912C17.2887 19.4313 22.7478 20.0717 28.8594 21.3026C41.0927 23.7663 55.8016 28.5637 71.7296 33.1044C103.51 42.1644 140.075 50.1847 170.496 35.9939L170.073 35.0877C140.032 49.1015 103.818 41.2122 72.0037 32.1427C56.1341 27.6187 41.3416 22.7964 29.0568 20.3222C22.9094 19.0842 17.3553 18.426 12.5785 18.6927C7.80034 18.9595 3.7599 20.154 0.684243 22.659L1.31576 23.4344ZM170.496 35.9939C177.323 32.8094 183.837 28.508 189.914 22.8543L189.233 22.1221C183.233 27.704 176.806 31.9468 170.073 35.0877L170.496 35.9939ZM189.914 22.8543C193.953 19.0977 196.345 15.7492 197.442 12.8395C198.545 9.91557 198.343 7.41853 197.168 5.44099C196.003 3.48009 193.929 2.10882 191.434 1.31887C188.935 0.527703 185.974 0.305081 182.963 0.671751C176.951 1.40387 170.624 4.50406 167.327 10.3163C164.017 16.1518 163.841 24.5764 169.844 35.777L170.725 35.3046C164.822 24.2903 165.112 16.2474 168.197 10.8097C171.294 5.34881 177.289 2.37011 183.084 1.66442C185.977 1.31218 188.79 1.53091 191.132 2.27222C193.477 3.01475 195.308 4.26707 196.309 5.95173C197.3 7.61975 197.524 9.79024 196.507 12.4866C195.484 15.1973 193.211 18.4219 189.233 22.1221L189.914 22.8543ZM169.844 35.777C176.69 48.5501 191.612 65.024 219.337 85.6166L219.934 84.8138C192.254 64.2547 177.469 47.8864 170.725 35.3046L169.844 35.777Z" fill="#9CA5F2"/>
</svg>
