<svg width="133" height="12" viewBox="0 0 133 12" fill="none" xmlns="http://www.w3.org/2000/svg">
<path d="M14.9789 1.71701C14.7028 1.71757 14.4794 1.94188 14.4799 2.21802C14.4805 2.49417 14.7048 2.71757 14.9809 2.71701L14.9789 1.71701ZM106.861 2.03089L106.862 2.53088L106.862 2.53088L106.861 2.03089ZM124.911 1.97672L124.917 2.47669L124.911 1.97672ZM131.58 1.52348L131.741 1.99676L131.741 1.99676L131.58 1.52348ZM128.756 1.3533L128.757 1.8533L128.756 1.3533ZM67.746 2.28601L67.7277 1.78635L67.746 2.28601ZM3.69749 8.2203L3.60482 7.72896L3.60482 7.72896L3.69749 8.2203ZM2.34933 9.71813L2.48875 9.23797L2.48875 9.23797L2.34933 9.71813ZM9.03823 10.8127L8.99967 11.3112L8.99967 11.3112L9.03823 10.8127ZM32.7019 11.0462L32.7009 10.5462L32.7009 10.5462L32.7019 11.0462ZM105.113 11.3995C105.389 11.399 105.612 11.1747 105.612 10.8985C105.611 10.6224 105.387 10.399 105.111 10.3995L105.113 11.3995ZM14.9809 2.71701L73.2462 2.59898L73.2441 1.59898L14.9789 1.71701L14.9809 2.71701ZM73.2462 2.59898L106.862 2.53088L106.86 1.53089L73.2441 1.59898L73.2462 2.59898ZM106.862 2.53088C112.873 2.51871 118.898 2.54682 124.917 2.47669L124.905 1.47676C118.893 1.54681 112.88 1.51869 106.86 1.53089L106.862 2.53088ZM124.917 2.47669C125.412 2.47093 125.947 2.48184 126.515 2.49127C127.079 2.50065 127.672 2.50847 128.266 2.49542C129.447 2.46946 130.672 2.36088 131.741 1.99676L131.418 1.05019C130.497 1.36404 129.395 1.47035 128.244 1.49566C127.671 1.50824 127.095 1.50078 126.531 1.49141C125.971 1.4821 125.418 1.47079 124.905 1.47676L124.917 2.47669ZM131.741 1.99676C131.808 1.97395 131.881 1.94557 131.947 1.90909C131.98 1.89092 132.026 1.86264 132.072 1.82148C132.114 1.78444 132.192 1.70433 132.232 1.57537C132.279 1.42006 132.25 1.26121 132.17 1.13794C132.104 1.0359 132.019 0.981909 131.975 0.957655C131.887 0.908797 131.797 0.888099 131.748 0.878174C131.542 0.836258 131.199 0.825739 130.86 0.823461C130.502 0.821056 130.089 0.828433 129.71 0.836363C129.327 0.844389 128.984 0.852839 128.755 0.853304L128.757 1.8533C128.999 1.85281 129.357 1.84398 129.731 1.83614C130.11 1.82821 130.511 1.82114 130.853 1.82344C131.215 1.82587 131.456 1.83921 131.548 1.85806C131.574 1.86333 131.54 1.86012 131.489 1.83135C131.463 1.81713 131.391 1.77383 131.332 1.68315C131.259 1.57125 131.232 1.42445 131.276 1.2819C131.311 1.1657 131.38 1.09907 131.406 1.07626C131.436 1.04932 131.46 1.03602 131.464 1.03361C131.473 1.02865 131.463 1.03493 131.418 1.05019L131.741 1.99676ZM128.755 0.853304C110.252 0.890787 91.7319 1.0165 73.2294 1.59923L73.2609 2.59873C91.748 2.01649 110.256 1.89078 128.757 1.8533L128.755 0.853304ZM73.2294 1.59923C71.3953 1.65699 69.5614 1.71924 67.7277 1.78635L67.7642 2.78568C69.5962 2.71864 71.4284 2.65644 73.2609 2.59873L73.2294 1.59923ZM67.7277 1.78635C46.4015 2.56677 24.6793 3.7544 3.60482 7.72896L3.79015 8.71164C24.7851 4.75208 46.4425 3.56594 67.7642 2.78568L67.7277 1.78635ZM3.60482 7.72896C3.16298 7.81229 2.12741 8.01524 1.5198 8.31291C1.36672 8.38791 1.19074 8.49192 1.06054 8.63779C0.916503 8.79915 0.786909 9.07082 0.909207 9.38394C1.00678 9.63377 1.22634 9.78983 1.41114 9.89095C1.61406 10.002 1.8809 10.1028 2.2099 10.1983L2.48875 9.23797C2.19227 9.15188 2.00334 9.07507 1.89115 9.01368C1.76084 8.94238 1.80595 8.93121 1.84068 9.02013C1.90013 9.17234 1.81929 9.28945 1.80655 9.30372C1.80366 9.30696 1.81173 9.29741 1.84072 9.27785C1.86858 9.25907 1.90769 9.23644 1.95976 9.21093C2.42146 8.98474 3.31094 8.80202 3.79015 8.71164L3.60482 7.72896ZM2.2099 10.1983C4.41098 10.8374 6.76334 11.1382 8.99967 11.3112L9.0768 10.3142C6.86884 10.1434 4.59431 9.84936 2.48875 9.23797L2.2099 10.1983ZM8.99967 11.3112C16.8707 11.9202 24.8761 11.5621 32.703 11.5462L32.7009 10.5462C24.8161 10.5622 16.8952 10.9191 9.0768 10.3142L8.99967 11.3112ZM32.703 11.5462L105.113 11.3995L105.111 10.3995L32.7009 10.5462L32.703 11.5462Z" fill="#9CA5F2"/>
</svg>
