<svg width="187" height="132" viewBox="0 0 187 132" fill="none" xmlns="http://www.w3.org/2000/svg" style="">
<path d="M1 77.7437C33.6374 51.426 70.5258 29.9308 107.26 11.7605C115.548 7.66068 123.924 3.44794 132.772 1.23991C135.142 0.648314 140.367 1.04201 139.729 3.65725C138.218 9.85934 132.71 13.9067 128.591 18.3996C113.426 34.9401 95.1919 49.646 78.0245 63.2056C55.8754 80.6999 32.8872 98.4551 9.11747 113.221C-9.87641 125.02 45.9324 87.395 64.7191 75.1902C87.8648 60.1536 106.08 48.7548 129.049 34.2315C135.54 30.1267 142.026 26.011 148.518 21.9065C153.375 18.8358 157.892 14.8892 163.166 12.85C166.416 11.5937 157.663 17.4589 154.805 19.5913C134.767 34.5382 114.782 49.4641 95.0833 64.976C79.9807 76.8689 50.5493 97.5373 34.6139 110.24C29.0304 114.69 22.3901 118.766 20.272 125.648C18.8532 130.258 29.2435 123.668 33.2258 121.664C46.0903 115.191 58.6028 107.88 71.3107 101.032C88.489 91.7753 105.603 82.3665 122.884 73.3516C137.282 65.8411 151.703 58.3703 166.34 51.4594C172.581 48.5128 178.767 44.8763 185.474 43.7988C187.476 43.4771 183.232 47.6765 181.599 49.008C177.747 52.1481 136.187 81.1692 134.969 82.0336C120.225 92.4942 103.245 104.594 88.7664 115.876C84.7484 119.008 80.7835 122.232 76.9564 125.648C76.9136 125.686 67.7387 133.393 75.1864 130.244C89.5221 124.183 103.063 113.78 116.293 105.39C131.104 95.9962 145.857 86.2241 161.305 78.1523C163.75 76.8748 166.139 75.2957 168.781 74.6795C169.289 74.561 169.115 76.0033 168.751 76.4159C166.459 79.0144 163.799 81.1887 161.152 83.3274C149.546 92.7061 133.125 104.296 121.358 112.336" stroke="#11100E" stroke-linecap="round" class="oqMKZScV_0"></path>
<style data-made-with="vivus-instant">.oqMKZScV_0{stroke-dasharray:1215 1217;stroke-dashoffset:1216;animation:oqMKZScV_draw 2000ms linear 0ms forwards;}@keyframes oqMKZScV_draw{100%{stroke-dashoffset:0;}}@keyframes oqMKZScV_fade{0%{stroke-opacity:1;}94.44444444444444%{stroke-opacity:1;}100%{stroke-opacity:0;}}</style></svg>
