<svg width="106" height="10" viewBox="0 0 106 10" fill="none" xmlns="http://www.w3.org/2000/svg">
    <path
        d="M11.8277 1.71171L58.1006 1.61797M58.1006 1.61797L84.7973 1.56389C89.5752 1.55421 94.3549 1.57655 99.1326 1.52088C100.732 1.50225 102.848 1.69935 104.429 1.16092C105.138 0.919021 102.935 1.02426 102.186 1.02578C87.4924 1.05554 72.7887 1.15538 58.1006 1.61797ZM58.1006 1.61797C56.6446 1.66383 55.1889 1.71325 53.7333 1.76651C36.7983 2.38624 19.5727 3.32884 2.86747 6.47938C2.13599 6.61734 -0.190201 7.09197 1.79679 7.66893C3.50691 8.1655 5.34419 8.4017 7.10896 8.53823C13.3391 9.02021 19.6632 8.7363 25.9021 8.72366L83.4083 8.60716"
        stroke="#9CA5F2" stroke-linecap="round" />
</svg>