<svg width="83" height="18" viewBox="0 0 83 18" fill="none" xmlns="http://www.w3.org/2000/svg">
<path d="M16.344 17.224C16.056 17.224 15.912 17.096 15.912 16.84C15.912 16.232 15.952 15.608 16.032 14.968C16.128 14.328 16.208 13.68 16.272 13.024C16.352 12.176 16.496 11.44 16.704 10.816C16.912 10.176 17.136 9.56001 17.376 8.96801C17.616 8.37601 17.816 7.71201 17.976 6.97601L18.384 5.27201C18.368 5.30401 18.296 5.38401 18.168 5.51201C18.04 5.64001 17.912 5.76801 17.784 5.89601C17.656 6.02401 17.576 6.10401 17.544 6.13601C17.096 6.69601 16.696 7.18401 16.344 7.60001C16.008 8.00001 15.664 8.37601 15.312 8.72801C14.976 9.08001 14.592 9.43201 14.16 9.78401C13.744 10.136 13.232 10.544 12.624 11.008C12.24 11.28 11.912 11.536 11.64 11.776C11.384 12 11.12 12.216 10.848 12.424C10.576 12.616 10.248 12.824 9.86398 13.048C9.70398 13.128 9.57598 13.168 9.47998 13.168C9.33598 13.168 9.20798 13.088 9.09598 12.928C8.96798 12.752 8.83198 12.584 8.68798 12.424C8.55998 12.248 8.43198 12.056 8.30398 11.848C7.98398 11.272 7.75198 10.728 7.60798 10.216C7.47998 9.70401 7.39198 9.19201 7.34398 8.68001C7.31198 8.15201 7.25598 7.60001 7.17598 7.02401C7.12798 6.65601 7.09598 6.31201 7.07998 5.99201C7.06398 5.65601 7.05598 5.33601 7.05598 5.03201C7.05598 4.42401 7.07198 3.83201 7.10398 3.25601C7.15198 2.68001 7.18398 2.03201 7.19998 1.31201C7.19998 1.12001 7.25598 0.984011 7.36798 0.904011C7.47998 0.80801 7.60798 0.76001 7.75198 0.76001C7.91198 0.76001 8.06398 0.80801 8.20798 0.904011C8.35198 1.00001 8.45598 1.14401 8.51998 1.33601V1.36001C8.58398 1.53601 8.61598 1.78401 8.61598 2.10401C8.61598 2.64801 8.55998 3.34401 8.44798 4.19201C8.35198 5.04001 8.31998 5.93601 8.35198 6.88001C8.38398 7.50401 8.41598 8.05601 8.44798 8.53601C8.49598 9.01601 8.58398 9.47201 8.71198 9.90401C8.83998 10.32 9.04798 10.768 9.33598 11.248C9.44798 11.44 9.56798 11.616 9.69598 11.776C10.16 11.504 10.584 11.264 10.968 11.056C11.352 10.848 11.776 10.576 12.24 10.24C12.992 9.68001 13.624 9.13601 14.136 8.60801C14.648 8.06401 15.136 7.48801 15.6 6.88001C16.064 6.27201 16.608 5.58401 17.232 4.81601C17.584 4.38401 17.88 4.00801 18.12 3.68801C18.36 3.36801 18.64 2.98401 18.96 2.53601C19.056 2.39201 19.2 2.32001 19.392 2.32001C19.568 2.32001 19.72 2.39201 19.848 2.53601C19.992 2.66401 20.048 2.82401 20.016 3.01601C19.904 3.56001 19.808 3.99201 19.728 4.31201C19.648 4.63201 19.56 4.95201 19.464 5.27201C19.384 5.59201 19.28 6.02401 19.152 6.56801C18.96 7.38401 18.744 8.15201 18.504 8.87201C18.264 9.59201 18.048 10.296 17.856 10.984C17.664 11.672 17.528 12.392 17.448 13.144C17.432 13.336 17.416 13.512 17.4 13.672C17.4 13.832 17.4 14 17.4 14.176C17.4 14.496 17.408 14.824 17.424 15.16C17.44 15.48 17.456 15.872 17.472 16.336C17.472 16.592 17.344 16.8 17.088 16.96C16.832 17.136 16.584 17.224 16.344 17.224ZM2.11198 17.584C1.83998 17.584 1.55998 17.496 1.27198 17.32C0.983979 17.144 0.855979 16.84 0.887979 16.408C0.999979 15.176 1.24798 13.92 1.63198 12.64C2.03198 11.344 2.48798 10.096 2.99998 8.89601C3.52798 7.68001 4.03998 6.57601 4.53598 5.58401C5.04798 4.57601 5.47198 3.75201 5.80798 3.11201C6.01598 2.72801 6.23998 2.53601 6.47998 2.53601C6.70398 2.53601 6.79198 2.71201 6.74398 3.06401H6.76798C6.75198 3.14401 6.67998 3.32001 6.55198 3.59201C6.42398 3.86401 6.27198 4.18401 6.09598 4.55201C5.93598 4.90401 5.76798 5.24001 5.59198 5.56001C5.43198 5.88001 5.31198 6.12801 5.23198 6.30401C4.70398 7.40801 4.23198 8.45601 3.81598 9.44801C3.41598 10.424 3.07998 11.432 2.80798 12.472C2.53598 13.512 2.35198 14.68 2.25598 15.976C2.25598 16.088 2.30398 16.208 2.39998 16.336C2.51198 16.464 2.61598 16.592 2.71198 16.72C2.82398 16.848 2.87998 16.976 2.87998 17.104C2.87998 17.232 2.79998 17.352 2.63998 17.464C2.51198 17.544 2.33598 17.584 2.11198 17.584Z" fill="white"/>
<path d="M22.5759 15.472C22.1279 15.472 21.6879 15.376 21.2559 15.184C20.8399 14.992 20.4959 14.728 20.2239 14.392C19.9519 14.056 19.8159 13.672 19.8159 13.24C19.8159 12.6 19.9839 12.04 20.3199 11.56C20.6559 11.08 21.0799 10.672 21.5919 10.336C22.1199 10 22.6559 9.74401 23.1999 9.56801C23.7279 9.39201 24.3039 9.30401 24.9279 9.30401C25.5839 9.30401 26.2159 9.42401 26.8239 9.66401C27.4479 9.88801 27.8879 10.28 28.1439 10.84C28.2719 10.424 28.3679 10.016 28.4319 9.61601C28.4959 9.20001 28.5279 8.84001 28.5279 8.53601C28.5279 8.02401 28.4239 7.63201 28.2159 7.36001C28.0239 7.08801 27.6719 6.95201 27.1599 6.95201C26.9519 6.95201 26.7119 7.03201 26.4399 7.19201C26.1679 7.33601 25.9039 7.52801 25.6479 7.76801C25.5519 7.86401 25.4799 7.92801 25.4319 7.96001C25.3999 7.99201 25.3119 8.00801 25.1679 8.00801C25.0079 8.00801 24.8799 7.95201 24.7839 7.84001C24.7039 7.72801 24.6639 7.60001 24.6639 7.45601C24.6639 7.26401 24.7359 7.09601 24.8799 6.95201C25.0239 6.80801 25.1839 6.64801 25.3599 6.47201C25.5359 6.29601 25.7599 6.14401 26.0319 6.01601C26.3199 5.87201 26.6799 5.80001 27.1119 5.80001C28.0079 5.80001 28.6639 6.00801 29.0799 6.42401C29.4959 6.84001 29.7039 7.52001 29.7039 8.46401C29.7039 8.92801 29.6399 9.40801 29.5119 9.90401C29.3999 10.4 29.2639 10.928 29.1039 11.488C29.0079 11.84 28.8719 12.24 28.6959 12.688C28.5359 13.12 28.3279 13.552 28.0719 13.984C27.8159 14.416 27.5039 14.784 27.1359 15.088C27.0239 15.184 26.9039 15.232 26.7759 15.232C26.6159 15.232 26.4799 15.176 26.3679 15.064C26.2559 14.952 26.1999 14.824 26.1999 14.68C26.1999 14.536 26.2719 14.392 26.4159 14.248C26.5919 14.104 26.7759 13.872 26.9679 13.552C27.1759 13.232 27.3679 12.832 27.5439 12.352C27.4959 11.696 27.1839 11.216 26.6079 10.912C26.0479 10.608 25.4239 10.456 24.7359 10.456C24.3359 10.456 23.9519 10.504 23.5839 10.6C23.1839 10.712 22.7839 10.904 22.3839 11.176C21.9839 11.432 21.6479 11.736 21.3759 12.088C21.1199 12.44 20.9919 12.808 20.9919 13.192C20.9919 13.496 21.1439 13.768 21.4479 14.008C21.7679 14.248 22.1439 14.368 22.5759 14.368C22.9439 14.368 23.2319 14.36 23.4399 14.344C23.6639 14.328 23.8719 14.28 24.0639 14.2C24.2719 14.104 24.5359 13.936 24.8559 13.696C24.9999 13.6 25.1199 13.552 25.2159 13.552C25.3439 13.552 25.4479 13.592 25.5279 13.672C25.6079 13.752 25.6479 13.856 25.6479 13.984C25.6479 14.16 25.5599 14.312 25.3839 14.44C24.8399 14.888 24.3599 15.176 23.9439 15.304C23.5439 15.416 23.0879 15.472 22.5759 15.472Z" fill="white"/>
<path d="M32.2515 16.696C31.9955 16.696 31.7395 16.592 31.4835 16.384C31.2435 16.192 31.1395 15.872 31.1715 15.424C31.2195 15.008 31.3315 14.456 31.5075 13.768C31.6995 13.064 31.9395 12.288 32.2275 11.44C32.5315 10.592 32.8515 9.72001 33.1875 8.82401C33.5395 7.91201 33.8915 7.03201 34.2435 6.18401C34.5955 5.32001 34.9315 4.54401 35.2515 3.85601C35.5715 3.15201 35.8435 2.58401 36.0675 2.15201C36.2115 1.89601 36.4115 1.76801 36.6675 1.76801C36.8115 1.76801 36.9395 1.82401 37.0515 1.93601C37.1635 2.03201 37.2195 2.17601 37.2195 2.36801C37.2195 2.43201 37.1955 2.56801 37.1475 2.77601C37.1155 2.98401 37.0595 3.20001 36.9795 3.42401C36.9155 3.64801 36.8435 3.83201 36.7635 3.97601C36.6035 4.23201 36.4115 4.49601 36.1875 4.76801C35.9635 5.04001 35.7635 5.36001 35.5875 5.72801C35.2035 6.56001 34.8195 7.44001 34.4355 8.36801C34.0515 9.28001 33.6995 10.176 33.3795 11.056C33.0595 11.936 32.7955 12.728 32.5875 13.432C32.3955 14.136 32.2835 14.696 32.2515 15.112C32.2515 15.224 32.2995 15.344 32.3955 15.472C32.5075 15.6 32.6115 15.728 32.7075 15.856C32.8195 15.984 32.8755 16.112 32.8755 16.24C32.8755 16.368 32.7955 16.488 32.6355 16.6C32.5555 16.664 32.4275 16.696 32.2515 16.696Z" fill="white"/>
<path d="M40.6254 6.80801C40.5454 6.90401 40.4414 6.91201 40.3134 6.83201C40.2014 6.75201 40.1054 6.63201 40.0254 6.47201C39.9454 6.29601 39.9214 6.12801 39.9534 5.96801H39.9774C40.0414 5.72801 40.1214 5.52801 40.2174 5.36801C40.3134 5.20801 40.4414 5.04801 40.6014 4.88801C40.6974 4.79201 40.8254 4.74401 40.9854 4.74401C41.1294 4.74401 41.2574 4.79201 41.3694 4.88801C41.4974 4.96801 41.5614 5.07201 41.5614 5.20001C41.5614 5.26401 41.5374 5.33601 41.4894 5.41601C41.4414 5.48001 41.3454 5.64801 41.2014 5.92001C41.0734 6.19201 40.8814 6.48801 40.6254 6.80801ZM37.6014 15.664C37.3454 15.664 37.0894 15.568 36.8334 15.376C36.5934 15.168 36.4974 14.84 36.5454 14.392C36.6094 13.768 36.6974 13.24 36.8094 12.808C36.9214 12.376 37.0494 11.984 37.1934 11.632C37.3374 11.264 37.4894 10.872 37.6494 10.456C37.8254 10.04 38.0014 9.53601 38.1774 8.94401C38.2734 8.67201 38.4734 8.53601 38.7774 8.53601C38.9854 8.53601 39.1694 8.60001 39.3294 8.72801C39.4894 8.85601 39.5374 9.03201 39.4734 9.25601C39.2654 9.92801 39.0574 10.472 38.8494 10.888C38.6414 11.304 38.4494 11.672 38.2734 11.992C38.0974 12.296 37.9454 12.632 37.8174 13C37.7054 13.352 37.6334 13.808 37.6014 14.368C37.6014 14.416 37.7054 14.52 37.9134 14.68C38.1214 14.824 38.2254 14.992 38.2254 15.184C38.2254 15.328 38.1454 15.456 37.9854 15.568C37.9054 15.632 37.7774 15.664 37.6014 15.664Z" fill="white"/>
<path d="M49.2227 16.192C48.9827 16.192 48.7587 16.056 48.5507 15.784C48.3427 15.496 48.2387 15.136 48.2387 14.704C48.2387 14.432 48.2627 14.088 48.3107 13.672C48.3587 13.256 48.4307 12.84 48.5267 12.424C48.6227 11.992 48.7347 11.624 48.8627 11.32C49.1187 10.744 49.2467 10.288 49.2467 9.95201C49.2467 9.53601 49.0547 9.32801 48.6707 9.32801C48.6227 9.32801 48.5667 9.32801 48.5027 9.32801C48.4387 9.32801 48.3747 9.34401 48.3107 9.37601C47.9907 9.47201 47.5587 9.68801 47.0147 10.024C46.4707 10.344 45.8947 10.72 45.2867 11.152C44.6947 11.584 44.1347 12.016 43.6067 12.448C43.0787 12.88 42.6707 13.256 42.3827 13.576C41.9827 14.024 41.7187 14.368 41.5907 14.608C41.4627 14.848 41.3987 14.968 41.3987 14.968C41.2707 15.144 41.1267 15.232 40.9667 15.232C40.8227 15.232 40.7027 15.16 40.6067 15.016C40.5107 14.856 40.4867 14.648 40.5347 14.392C40.7587 13.08 40.9987 11.96 41.2547 11.032C41.5267 10.104 41.8387 9.30401 42.1907 8.63201C42.3347 8.37601 42.5347 8.24801 42.7907 8.24801C42.9347 8.24801 43.0627 8.30401 43.1747 8.41601C43.2867 8.51201 43.3427 8.66401 43.3427 8.87201C43.3427 8.98401 43.2947 9.20001 43.1987 9.52001C43.1187 9.84001 43.0147 10.104 42.8867 10.312C42.7267 10.568 42.5907 10.864 42.4787 11.2C42.3827 11.52 42.2627 11.968 42.1187 12.544C42.2947 12.272 42.4467 12.08 42.5747 11.968C42.7027 11.84 42.8707 11.672 43.0787 11.464C43.7347 10.808 44.5107 10.216 45.4067 9.68801C46.3187 9.14401 47.1907 8.68801 48.0227 8.32001C48.1987 8.24001 48.4227 8.16001 48.6947 8.08001C48.9667 8.00001 49.2387 7.96001 49.5107 7.96001C49.8307 7.96001 50.1187 8.04801 50.3747 8.22401C50.6307 8.40001 50.7587 8.73601 50.7587 9.23201C50.7587 9.48801 50.7107 9.80001 50.6147 10.168C50.5347 10.536 50.3907 10.968 50.1827 11.464C49.9267 12.056 49.7587 12.672 49.6787 13.312C49.6147 13.952 49.5827 14.496 49.5827 14.944C49.5827 15.072 49.5827 15.2 49.5827 15.328C49.5987 15.44 49.6067 15.544 49.6067 15.64C49.6067 15.8 49.5827 15.928 49.5347 16.024C49.4867 16.136 49.3827 16.192 49.2227 16.192Z" fill="white"/>
<path d="M56.4457 6.80801C56.3657 6.90401 56.2617 6.91201 56.1337 6.83201C56.0217 6.75201 55.9257 6.63201 55.8457 6.47201C55.7657 6.29601 55.7417 6.12801 55.7737 5.96801H55.7977C55.8617 5.72801 55.9417 5.52801 56.0377 5.36801C56.1337 5.20801 56.2617 5.04801 56.4217 4.88801C56.5177 4.79201 56.6457 4.74401 56.8057 4.74401C56.9497 4.74401 57.0777 4.79201 57.1897 4.88801C57.3177 4.96801 57.3817 5.07201 57.3817 5.20001C57.3817 5.26401 57.3577 5.33601 57.3097 5.41601C57.2617 5.48001 57.1657 5.64801 57.0217 5.92001C56.8937 6.19201 56.7017 6.48801 56.4457 6.80801ZM53.4217 15.664C53.1657 15.664 52.9097 15.568 52.6537 15.376C52.4137 15.168 52.3177 14.84 52.3657 14.392C52.4297 13.768 52.5177 13.24 52.6297 12.808C52.7417 12.376 52.8697 11.984 53.0137 11.632C53.1577 11.264 53.3097 10.872 53.4697 10.456C53.6457 10.04 53.8217 9.53601 53.9977 8.94401C54.0937 8.67201 54.2937 8.53601 54.5977 8.53601C54.8057 8.53601 54.9897 8.60001 55.1497 8.72801C55.3097 8.85601 55.3577 9.03201 55.2937 9.25601C55.0857 9.92801 54.8777 10.472 54.6697 10.888C54.4617 11.304 54.2697 11.672 54.0937 11.992C53.9177 12.296 53.7657 12.632 53.6377 13C53.5257 13.352 53.4537 13.808 53.4217 14.368C53.4217 14.416 53.5257 14.52 53.7337 14.68C53.9417 14.824 54.0457 14.992 54.0457 15.184C54.0457 15.328 53.9657 15.456 53.8057 15.568C53.7257 15.632 53.5977 15.664 53.4217 15.664Z" fill="white"/>
<path d="M60.027 17.32C59.963 17.32 59.907 17.312 59.859 17.296C59.811 17.296 59.755 17.288 59.691 17.272C59.243 17.16 58.803 16.984 58.371 16.744C57.955 16.504 57.611 16.152 57.339 15.688C57.067 15.208 56.931 14.584 56.931 13.816C56.931 13.512 56.955 13.184 57.003 12.832C57.083 12.272 57.227 11.616 57.435 10.864C57.659 10.096 57.923 9.29601 58.227 8.46401H58.203C58.107 8.46401 58.019 8.48001 57.939 8.51201C57.859 8.54401 57.779 8.56001 57.699 8.56001C57.443 8.56001 57.315 8.40801 57.315 8.10401C57.315 7.92801 57.387 7.76001 57.531 7.60001C57.675 7.44001 57.811 7.36001 57.939 7.36001L58.659 7.33601C59.059 6.29601 59.459 5.31201 59.859 4.38401C60.275 3.44001 60.627 2.69601 60.915 2.15201C60.995 2.00801 61.107 1.90401 61.251 1.84001C61.411 1.76001 61.571 1.72001 61.731 1.72001C61.891 1.72001 62.027 1.76001 62.139 1.84001C62.267 1.90401 62.331 2.00001 62.331 2.12801C62.331 2.16001 62.315 2.22401 62.283 2.32001L60.795 5.56001C60.651 5.86401 60.515 6.15201 60.387 6.42401C60.275 6.69601 60.155 6.96801 60.027 7.24001C60.347 7.24001 60.675 7.24801 61.011 7.26401C61.363 7.28001 61.755 7.31201 62.187 7.36001C62.267 7.37601 62.347 7.43201 62.427 7.52801C62.507 7.62401 62.547 7.72801 62.547 7.84001C62.547 7.92001 62.515 8.00001 62.451 8.08001C62.403 8.14401 62.291 8.18401 62.115 8.20001C61.731 8.24801 61.307 8.28001 60.843 8.29601C60.379 8.29601 59.963 8.30401 59.595 8.32001C59.227 9.29601 58.931 10.184 58.707 10.984C58.499 11.784 58.331 12.536 58.203 13.24C58.187 13.352 58.171 13.464 58.155 13.576C58.155 13.688 58.155 13.792 58.155 13.888C58.155 14.608 58.347 15.144 58.731 15.496C59.115 15.848 59.547 16.096 60.027 16.24C60.315 16.336 60.515 16.432 60.627 16.528C60.755 16.64 60.819 16.744 60.819 16.84C60.819 16.968 60.739 17.08 60.579 17.176C60.435 17.272 60.251 17.32 60.027 17.32Z" fill="white"/>
<path d="M65.9779 17.368C65.8499 17.368 65.6979 17.344 65.5219 17.296C64.5458 16.976 63.8339 16.448 63.3859 15.712C62.9379 14.96 62.7139 14.168 62.7139 13.336C62.7139 13.208 62.7139 13.088 62.7139 12.976C62.7299 12.848 62.7459 12.728 62.7619 12.616C62.9059 11.704 63.2099 10.896 63.6739 10.192C64.1539 9.48801 64.6899 8.91201 65.2819 8.46401C65.8899 8.00001 66.4418 7.70401 66.9379 7.57601C67.2579 7.49601 67.5779 7.43201 67.8979 7.38401C68.2179 7.32001 68.5299 7.28801 68.8339 7.28801C69.6019 7.28801 70.2579 7.45601 70.8019 7.79201C71.3459 8.12801 71.6179 8.68001 71.6179 9.44801C71.6179 9.88001 71.4819 10.272 71.2099 10.624C70.9539 10.976 70.6259 11.28 70.2259 11.536C69.8419 11.776 69.4659 11.968 69.0979 12.112C68.5379 12.336 67.8979 12.504 67.1779 12.616C66.4739 12.728 65.8099 12.784 65.1859 12.784C64.7859 12.784 64.4179 12.76 64.0819 12.712V12.736C64.0819 12.8 64.0739 12.864 64.0579 12.928C64.0419 12.976 64.0339 13.032 64.0339 13.096C64.0179 13.16 64.0099 13.224 64.0099 13.288C64.0099 13.336 64.0099 13.384 64.0099 13.432C64.0099 13.928 64.1059 14.368 64.2979 14.752C64.5059 15.12 64.7459 15.44 65.0179 15.712C65.2899 15.968 65.5139 16.176 65.6899 16.336C65.9779 16.48 66.1779 16.616 66.2899 16.744C66.4179 16.888 66.4819 17 66.4819 17.08C66.4819 17.272 66.3139 17.368 65.9779 17.368ZM65.8339 11.704C66.3139 11.704 66.8179 11.672 67.3459 11.608C67.8739 11.528 68.3619 11.384 68.8099 11.176C69.1618 11 69.4899 10.768 69.7939 10.48C70.0979 10.176 70.2499 9.81601 70.2499 9.40001C70.2499 9.08001 70.1218 8.84001 69.8659 8.68001C69.6099 8.52001 69.2498 8.44001 68.7859 8.44001C68.2579 8.44001 67.6819 8.53601 67.0579 8.72801C66.8339 8.79201 66.5539 8.94401 66.2179 9.18401C65.8979 9.42401 65.5699 9.75201 65.2339 10.168C64.8979 10.568 64.6179 11.048 64.3939 11.608C64.5859 11.624 64.8019 11.648 65.0419 11.68C65.2979 11.696 65.5619 11.704 65.8339 11.704Z" fill="white"/>
<path d="M75.1931 15.472C74.7451 15.472 74.3051 15.376 73.8731 15.184C73.4571 14.992 73.1131 14.728 72.8411 14.392C72.5691 14.056 72.4331 13.672 72.4331 13.24C72.4331 12.6 72.6011 12.04 72.9371 11.56C73.2731 11.08 73.6971 10.672 74.2091 10.336C74.7371 10 75.2731 9.74401 75.8171 9.56801C76.3451 9.39201 76.9211 9.30401 77.5451 9.30401C78.2011 9.30401 78.8331 9.42401 79.4411 9.66401C80.0651 9.88801 80.5051 10.28 80.7611 10.84C80.8891 10.424 80.9851 10.016 81.0491 9.61601C81.1131 9.20001 81.1451 8.84001 81.1451 8.53601C81.1451 8.02401 81.0411 7.63201 80.8331 7.36001C80.6411 7.08801 80.2891 6.95201 79.7771 6.95201C79.5691 6.95201 79.3291 7.03201 79.0571 7.19201C78.7851 7.33601 78.5211 7.52801 78.2651 7.76801C78.1691 7.86401 78.0971 7.92801 78.0491 7.96001C78.0171 7.99201 77.9291 8.00801 77.7851 8.00801C77.6251 8.00801 77.4971 7.95201 77.4011 7.84001C77.3211 7.72801 77.2811 7.60001 77.2811 7.45601C77.2811 7.26401 77.3531 7.09601 77.4971 6.95201C77.6411 6.80801 77.8011 6.64801 77.9771 6.47201C78.1531 6.29601 78.3771 6.14401 78.6491 6.01601C78.9371 5.87201 79.2971 5.80001 79.7291 5.80001C80.6251 5.80001 81.2811 6.00801 81.6971 6.42401C82.1131 6.84001 82.3211 7.52001 82.3211 8.46401C82.3211 8.92801 82.2571 9.40801 82.1291 9.90401C82.0171 10.4 81.8811 10.928 81.7211 11.488C81.6251 11.84 81.4891 12.24 81.3131 12.688C81.1531 13.12 80.9451 13.552 80.6891 13.984C80.4331 14.416 80.1211 14.784 79.7531 15.088C79.6411 15.184 79.5211 15.232 79.3931 15.232C79.2331 15.232 79.0971 15.176 78.9851 15.064C78.8731 14.952 78.8171 14.824 78.8171 14.68C78.8171 14.536 78.8891 14.392 79.0331 14.248C79.2091 14.104 79.3931 13.872 79.5851 13.552C79.7931 13.232 79.9851 12.832 80.1611 12.352C80.1131 11.696 79.8011 11.216 79.2251 10.912C78.6651 10.608 78.0411 10.456 77.3531 10.456C76.9531 10.456 76.5691 10.504 76.2011 10.6C75.8011 10.712 75.4011 10.904 75.0011 11.176C74.6011 11.432 74.2651 11.736 73.9931 12.088C73.7371 12.44 73.6091 12.808 73.6091 13.192C73.6091 13.496 73.7611 13.768 74.0651 14.008C74.3851 14.248 74.7611 14.368 75.1931 14.368C75.5611 14.368 75.8491 14.36 76.0571 14.344C76.2811 14.328 76.4891 14.28 76.6811 14.2C76.8891 14.104 77.1531 13.936 77.4731 13.696C77.6171 13.6 77.7371 13.552 77.8331 13.552C77.9611 13.552 78.0651 13.592 78.1451 13.672C78.2251 13.752 78.2651 13.856 78.2651 13.984C78.2651 14.16 78.1771 14.312 78.0011 14.44C77.4571 14.888 76.9771 15.176 76.5611 15.304C76.1611 15.416 75.7051 15.472 75.1931 15.472Z" fill="white"/>
</svg>
