<svg width="16" height="17" viewBox="0 0 16 17" fill="none" xmlns="http://www.w3.org/2000/svg">
<path d="M7.28984 9.74851V9.98941H7.95734V9.83653C7.95734 9.64505 7.97909 9.48136 8.02258 9.34547C8.06608 9.20649 8.14638 9.07214 8.26349 8.94242C8.38059 8.80962 8.54956 8.65674 8.77039 8.48379C9.02133 8.29539 9.23881 8.1178 9.42284 7.95103C9.60686 7.78116 9.74906 7.59585 9.84944 7.3951C9.94981 7.19126 10 6.94573 10 6.6585C10 6.14273 9.82267 5.73814 9.46801 5.44474C9.11334 5.14825 8.61313 5 7.96738 5C7.57256 5 7.21455 5.04169 6.89335 5.12508C6.57215 5.20847 6.27436 5.31657 6 5.44937L6.29109 6.07015C6.52865 5.96206 6.77624 5.8694 7.03388 5.79219C7.29151 5.71498 7.58595 5.67637 7.91719 5.67637C8.32539 5.67637 8.64157 5.76285 8.86575 5.9358C9.08992 6.10567 9.20201 6.3512 9.20201 6.6724C9.20201 6.87315 9.16855 7.04456 9.10163 7.18663C9.03471 7.3287 8.9243 7.47077 8.77039 7.61284C8.61982 7.75182 8.41405 7.92169 8.15307 8.12244C7.9289 8.29539 7.75324 8.45908 7.6261 8.6135C7.5023 8.76792 7.41531 8.9347 7.36512 9.11383C7.31493 9.28987 7.28984 9.50143 7.28984 9.74851Z" fill="white"/>
<path d="M7.23463 10.9298C7.12422 11.0194 7.06901 11.1723 7.06901 11.3885C7.06901 11.6016 7.12422 11.7576 7.23463 11.8564C7.34504 11.9521 7.48724 12 7.66123 12C7.82518 12 7.96403 11.9521 8.07779 11.8564C8.1949 11.7576 8.25345 11.6016 8.25345 11.3885C8.25345 11.1723 8.1949 11.0194 8.07779 10.9298C7.96403 10.8372 7.82518 10.7909 7.66123 10.7909C7.48724 10.7909 7.34504 10.8372 7.23463 10.9298Z" fill="white"/>
<path fill-rule="evenodd" clip-rule="evenodd" d="M16 8.5C16 12.9183 12.4183 16.5 8 16.5C3.58172 16.5 0 12.9183 0 8.5C0 4.08172 3.58172 0.5 8 0.5C12.4183 0.5 16 4.08172 16 8.5ZM15 8.5C15 12.366 11.866 15.5 8 15.5C4.13401 15.5 1 12.366 1 8.5C1 4.63401 4.13401 1.5 8 1.5C11.866 1.5 15 4.63401 15 8.5Z" fill="white"/>
</svg>
