<svg width="49" height="34" viewBox="0 0 49 34" fill="none" xmlns="http://www.w3.org/2000/svg">
<path d="M10.5479 12.0349C12.6246 12.0349 14.6547 12.6518 16.3814 13.8077C18.1081 14.9636 19.454 16.6065 20.2487 18.5287C21.0434 20.4509 21.2513 22.566 20.8462 24.6065C20.441 26.6471 19.441 28.5215 17.9726 29.9926C16.5041 31.4638 14.6332 32.4657 12.5964 32.8716C10.5596 33.2775 8.44839 33.0691 6.52976 32.273C4.61114 31.4768 2.97126 30.1285 1.81751 28.3986C0.663753 26.6687 0.047939 24.6348 0.047939 22.5543L-6.10352e-05 21.0515C-6.10352e-05 15.4717 2.21243 10.1204 6.1507 6.17482C10.089 2.22928 15.4304 0.0126953 20.9999 0.0126953V6.02379C19.0292 6.01848 17.077 6.40462 15.2562 7.15988C13.4354 7.91514 11.7821 9.02453 10.3919 10.4239C9.85162 10.9642 9.35318 11.5449 8.90094 12.1611C9.43794 12.077 9.98694 12.0319 10.5449 12.0319L10.5479 12.0349ZM37.5479 12.0349C39.6246 12.0349 41.6547 12.6518 43.3814 13.8077C45.1081 14.9636 46.454 16.6065 47.2487 18.5287C48.0434 20.4509 48.2513 22.566 47.8462 24.6065C47.441 26.6471 46.441 28.5215 44.9726 29.9926C43.5041 31.4638 41.6332 32.4657 39.5964 32.8716C37.5596 33.2775 35.4484 33.0691 33.5298 32.273C31.6111 31.4768 29.9713 30.1285 28.8175 28.3986C27.6638 26.6687 27.0479 24.6348 27.0479 22.5543L26.9999 21.0515C26.9999 15.4717 29.2124 10.1204 33.1507 6.17482C37.089 2.22928 42.4304 0.0126953 47.9999 0.0126953V6.02379C46.0292 6.01848 44.0771 6.40462 42.2562 7.15988C40.4354 7.91514 38.7821 9.02453 37.3919 10.4239C36.8516 10.9642 36.3532 11.5449 35.9009 12.1611C36.4379 12.077 36.9869 12.0319 37.5479 12.0319V12.0349Z" fill="#11100E"/>
</svg>
